<?xml version="1.0" encoding="UTF-8" standalone="no"?>
<!-- Generator: Adobe Illustrator 16.0.0, SVG Export Plug-In . SVG Version: 6.00 Build 0)  -->

<svg
   xmlns:dc="http://purl.org/dc/elements/1.1/"
   xmlns:cc="http://creativecommons.org/ns#"
   xmlns:rdf="http://www.w3.org/1999/02/22-rdf-syntax-ns#"
   xmlns:svg="http://www.w3.org/2000/svg"
   xmlns="http://www.w3.org/2000/svg"
   xmlns:sodipodi="http://sodipodi.sourceforge.net/DTD/sodipodi-0.dtd"
   xmlns:inkscape="http://www.inkscape.org/namespaces/inkscape"
   version="1.1"
   id="Capa_1"
   x="0px"
   y="0px"
   width="512px"
   height="512px"
   viewBox="0 0 535.5 535.5"
   style="enable-background:new 0 0 535.5 535.5;"
   xml:space="preserve"
   inkscape:version="0.48.4 r9939"
   sodipodi:docname="livingroom-table.svg"><metadata
     id="metadata45"><rdf:RDF><cc:Work
         rdf:about=""><dc:format>image/svg+xml</dc:format><dc:type
           rdf:resource="http://purl.org/dc/dcmitype/StillImage" /></cc:Work></rdf:RDF></metadata><defs
     id="defs43" /><sodipodi:namedview
     pagecolor="#ffffff"
     bordercolor="#666666"
     borderopacity="1"
     objecttolerance="10"
     gridtolerance="10"
     guidetolerance="10"
     inkscape:pageopacity="0"
     inkscape:pageshadow="2"
     inkscape:window-width="640"
     inkscape:window-height="480"
     id="namedview41"
     showgrid="false"
     inkscape:zoom="0.4609375"
     inkscape:cx="256"
     inkscape:cy="256"
     inkscape:window-x="75"
     inkscape:window-y="34"
     inkscape:window-maximized="0"
     inkscape:current-layer="Capa_1" /><g
     id="g3"
     style="fill:#ffffff"
     transform="matrix(0.58898305,0,0,0.60452054,113.63066,114.1859)"><g
       id="g5"
       style="fill:#ffffff"><path
         d="M 69.013,291.656 H 467.32 l 7.621,105.188 h 41.435 V 234.281 176.906 H 459 76.5 19.125 v 57.375 162.562 h 43.031 l 6.857,-105.187 z m 3.748,-57.375 H 463.16 l 2.074,28.688 H 70.887 l 1.874,-28.688 z"
         id="path7"
         style="fill:#ffffff"
         inkscape:connector-curvature="0" /><polygon
         points="19.125,167.344 516.375,167.344 535.5,138.656 0,138.656 "
         id="polygon9"
         style="fill:#ffffff" /></g></g><g
     id="g11" /><g
     id="g13" /><g
     id="g15" /><g
     id="g17" /><g
     id="g19" /><g
     id="g21" /><g
     id="g23" /><g
     id="g25" /><g
     id="g27" /><g
     id="g29" /><g
     id="g31" /><g
     id="g33" /><g
     id="g35" /><g
     id="g37" /><g
     id="g39" /><path
     d="m 515.96649,250.52629 13.73147,-104.92395 c 1.0273,-7.84047 -1.91761,-15.60408 -6.57466,-17.32398 -4.65705,-1.74873 -9.26274,3.21882 -10.28433,11.05929 l -12.2419,93.51875 h -55.05718 c -4.76549,0 -8.62926,6.5049 -8.62926,14.53753 0,8.03266 3.86377,14.53755 8.62926,14.53755 h 3.27021 l -18.59399,74.10974 c -1.85483,7.40809 0.19404,15.92115 4.59427,19.04389 1.08437,0.77828 2.23722,1.15302 3.35583,1.15302 3.36725,0 6.56326,-3.34375 7.95581,-8.8878 l 16.97316,-67.62405 26.92077,0.0102 16.95603,67.61445 c 1.86626,7.39848 6.93423,10.8287 11.31164,7.73478 4.39452,-3.12274 6.44911,-11.6454 4.59429,-19.04388 l -18.5883,-74.10977 h 3.27021 c 4.02927,-0.0102 7.52207,-4.73695 8.40667,-11.40519 z"
     id="path7-0"
     style="fill:#ffffff"
     inkscape:connector-curvature="0" /><path
     d="m 92.861256,260.75596 h 3.492154 c 5.08891,0 9.2149,-6.63422 9.2149,-14.82655 0,-8.19233 -4.12599,-14.82655 -9.2149,-14.82655 H 37.559677 L 24.493048,135.73478 C 23.38994,127.73843 18.459484,122.66233 13.51074,124.45563 8.5437181,126.20972 5.3928555,134.12767 6.489868,142.124 l 14.663391,107.00982 c 0.93246,6.79102 4.674487,11.63193 9.00159,11.63193 h 3.492153 l -19.85591,75.60262 c -1.980718,7.54558 0.213303,16.21807 4.906078,19.40289 4.680581,3.17502 10.092509,-0.35278 12.079316,-7.88854 l 18.106786,-68.95862 28.747807,-0.01 18.112878,68.96841 c 1.487059,5.65427 4.899983,9.06447 8.495753,9.06447 1.19452,0 2.41343,-0.38218 3.58357,-1.17593 4.69277,-3.18482 6.8868,-11.87691 4.90608,-19.40288 l -19.868104,-75.6124 z"
     id="path9"
     style="fill:#ffffff"
     inkscape:connector-curvature="0" /></svg>