<?xml version="1.0" encoding="iso-8859-1"?>
<!-- Generator: Adobe Illustrator 19.0.0, SVG Export Plug-In . SVG Version: 6.00 Build 0)  -->
<svg xmlns="http://www.w3.org/2000/svg" xmlns:xlink="http://www.w3.org/1999/xlink" version="1.1" id="Capa_1" x="0px" y="0px" viewBox="0 0 472.716 472.716" style="enable-background:new 0 0 472.716 472.716;" xml:space="preserve" width="512px" height="512px">
<g>
	<g>
		<path d="M217.288,343.496c-17.612-3.23-33.713-10.837-47.119-21.663c-14.333,7.743-30.605,12.094-47.586,12.094    c-0.002,0-0.003,0-0.006,0c-9.375-0.001-18.734-1.322-27.816-3.929c-2.177-0.624-4.382-1.377-6.61-2.235    c0.002,0.001,0.004,0.002,0.007,0.003c-5.575,24.892-7.967,48.16-7.967,48.16c-1.181,11.49,7.221,19.65,18.671,18.135    c0,0,93.244-12.34,117.82-36.915c1.625-1.626,3.138-3.331,4.577-5.084c-1.472-2.801-2.798-5.659-3.972-8.566L217.288,343.496    L217.288,343.496z" fill="#FFFFFF"/>
		<path d="M101.727,305.717c3.148,0.903,6.339,1.591,9.551,2.081c0.006,0.004,0.014,0.008,0.021,0.012    c-7.172-4.26-13.86-9.442-19.913-15.495c-19.507-19.506-34.035-56.084-43.182-108.719c-0.531-3.054-1.024-6.066-1.488-9.032    c-22.326,7.452-29.66,10.571-38.623,14.383c-8.964,3.812-10.759,14.588-3.989,23.945    C4.105,212.892,63.276,294.684,101.727,305.717z" fill="#FFFFFF"/>
		<path d="M109.249,274.451c10.344,10.345,23.17,17.295,37.131,20.339c-9.859-16.044-15.552-34.911-15.552-55.083    c0-22.269,11.039-54.995,32.841-97.497c-32.939-9.586-76.492-14.717-76.492-14.717c-11.471-1.352-19.723,6.925-18.338,18.391    C68.839,145.885,80.948,246.152,109.249,274.451z" fill="#FFFFFF"/>
		<path d="M8.912,321.969c-5.963,8.605-2.936,18.98,6.727,23.054s17.569,7.408,41.104,14.786c0.767-5.474,1.65-11.194,2.67-17.065    c1.689-9.717,3.577-18.843,5.655-27.39c0,0,0.001,0,0.001,0.001c-9.895-6.724-20.209-15.43-30.902-26.053    C19.754,306.322,14.875,313.363,8.912,321.969z" fill="#FFFFFF"/>
		<path d="M438.547,289.302c0.004-0.004,0.009-0.009,0.013-0.014c-10.701,10.633-21.022,19.345-30.924,26.072    c0.004-0.003,0.007-0.004,0.011-0.007c2.078,8.546,3.966,17.672,5.654,27.389c1.022,5.877,1.904,11.6,2.672,17.077    c23.541-7.378,31.446-10.713,41.107-14.789c9.661-4.076,12.687-14.452,6.724-23.059    C457.84,313.365,452.961,306.324,438.547,289.302z" fill="#FFFFFF"/>
		<path d="M384.556,327.766c0.003-0.001,0.006-0.003,0.009-0.004c-2.229,0.858-4.435,1.612-6.612,2.236    c-9.086,2.607-18.445,3.929-27.818,3.929c-16.982,0-33.256-4.351-47.588-12.094c-13.395,10.816-29.48,18.42-47.075,21.654    c-1.187,2.928-2.52,5.795-3.996,8.594c1.427,1.741,2.93,3.44,4.555,5.065c24.576,24.576,117.819,36.915,117.819,36.915    c11.45,1.515,19.852-6.645,18.671-18.135C392.522,375.927,390.131,352.658,384.556,327.766z" fill="#FFFFFF"/>
		<path d="M464.62,188.953c-8.965-3.811-16.301-6.928-38.625-14.381c-0.464,2.964-0.956,5.973-1.486,9.023    c-9.146,52.635-23.674,89.212-43.182,108.719c-6.045,6.046-12.726,11.225-19.889,15.482c3.211-0.489,6.402-1.177,9.549-2.081    c38.503-11.048,97.629-92.817,97.629-92.817C475.383,203.539,473.585,192.764,464.62,188.953z" fill="#FFFFFF"/>
		<path d="M316.626,239.707c0-42.928-69.047-153.9-69.047-153.9c-6.102-9.807-16.028-9.771-22.059,0.08    c0,0-69.431,113.41-69.431,153.82c0,44.26,36.009,80.268,80.268,80.268C280.617,319.975,316.626,283.968,316.626,239.707z" fill="#FFFFFF"/>
		<path d="M326.331,294.797c0.001-0.002,0.003-0.003,0.004-0.005c13.959-3.044,26.785-9.995,37.13-20.34    c28.339-28.339,40.42-128.567,40.42-128.567c1.382-11.467-6.872-19.745-18.343-18.396c0,0-42.987,5.056-75.774,14.511    c21.327,41.638,32.12,74.426,32.12,97.708C341.887,259.882,336.192,278.751,326.331,294.797z" fill="#FFFFFF"/>
	</g>
</g>
<g>
</g>
<g>
</g>
<g>
</g>
<g>
</g>
<g>
</g>
<g>
</g>
<g>
</g>
<g>
</g>
<g>
</g>
<g>
</g>
<g>
</g>
<g>
</g>
<g>
</g>
<g>
</g>
<g>
</g>
</svg>
