<?xml version="1.0" encoding="iso-8859-1"?>
<!-- Generator: Adobe Illustrator 16.0.0, SVG Export Plug-In . SVG Version: 6.00 Build 0)  -->
<!DOCTYPE svg PUBLIC "-//W3C//DTD SVG 1.1//EN" "http://www.w3.org/Graphics/SVG/1.1/DTD/svg11.dtd">
<svg xmlns="http://www.w3.org/2000/svg" xmlns:xlink="http://www.w3.org/1999/xlink" version="1.1" id="Capa_1" x="0px" y="0px" width="512px" height="512px" viewBox="0 0 44.999 44.999" style="enable-background:new 0 0 44.999 44.999;" xml:space="preserve">
<g>
	<g>
		<path d="M42.558,23.378l2.406-10.92c0.18-0.816-0.336-1.624-1.152-1.803c-0.816-0.182-1.623,0.335-1.802,1.151l-2.145,9.733    h-9.647c-0.835,0-1.512,0.677-1.512,1.513c0,0.836,0.677,1.513,1.512,1.513h0.573l-3.258,7.713    c-0.325,0.771,0.034,1.657,0.805,1.982c0.19,0.081,0.392,0.12,0.588,0.12c0.59,0,1.15-0.348,1.394-0.925l2.974-7.038l4.717,0.001    l2.971,7.037c0.327,0.77,1.215,1.127,1.982,0.805c0.77-0.325,1.13-1.212,0.805-1.982l-3.257-7.713h0.573    C41.791,24.564,42.403,24.072,42.558,23.378z" fill="#FFFFFF"/>
		<path d="M14.208,24.564h0.573c0.835,0,1.512-0.677,1.512-1.513c0-0.836-0.677-1.513-1.512-1.513H5.134L2.99,11.806    C2.809,10.99,2,10.472,1.188,10.655c-0.815,0.179-1.332,0.987-1.152,1.803l2.406,10.92c0.153,0.693,0.767,1.187,1.477,1.187h0.573    L1.234,32.28c-0.325,0.77,0.035,1.655,0.805,1.98c0.768,0.324,1.656-0.036,1.982-0.805l2.971-7.037l4.717-0.001l2.972,7.038    c0.244,0.577,0.804,0.925,1.394,0.925c0.196,0,0.396-0.039,0.588-0.12c0.77-0.325,1.13-1.212,0.805-1.98L14.208,24.564z" fill="#FFFFFF"/>
		<path d="M24.862,31.353h-0.852V18.308h8.13c0.835,0,1.513-0.677,1.513-1.512s-0.678-1.513-1.513-1.513H12.856    c-0.835,0-1.513,0.678-1.513,1.513c0,0.834,0.678,1.512,1.513,1.512h8.13v13.045h-0.852c-0.835,0-1.512,0.679-1.512,1.514    s0.677,1.513,1.512,1.513h4.728c0.837,0,1.514-0.678,1.514-1.513S25.699,31.353,24.862,31.353z" fill="#FFFFFF"/>
	</g>
</g>
<g>
</g>
<g>
</g>
<g>
</g>
<g>
</g>
<g>
</g>
<g>
</g>
<g>
</g>
<g>
</g>
<g>
</g>
<g>
</g>
<g>
</g>
<g>
</g>
<g>
</g>
<g>
</g>
<g>
</g>
</svg>
